<mxfile host="Electron" modified="2023-11-10T12:31:15.919Z" agent="Mozilla/5.0 (X11; Linux x86_64) AppleWebKit/537.36 (KHTML, like Gecko) draw.io/22.0.3 Chrome/114.0.5735.289 Electron/25.8.4 Safari/537.36" etag="q3zYiGNFCR7Dq5thjPtR" version="22.0.3" type="device">
  <diagram id="qc-cw8mjiicPfDOIfQId" name="Page-1">
    <mxGraphModel dx="1118" dy="1636" grid="1" gridSize="10" guides="1" tooltips="1" connect="1" arrows="1" fold="1" page="1" pageScale="1" pageWidth="800" pageHeight="500" math="0" shadow="0">
      <root>
        <mxCell id="0" />
        <mxCell id="1" parent="0" />
        <mxCell id="7r8yQM-oweqpXDeGi5ox-84" value="" style="verticalLabelPosition=bottom;html=1;verticalAlign=top;align=center;shape=mxgraph.floorplan.chair;shadow=0;direction=south;strokeWidth=1;rotation=-180;container=0;flipH=1;" parent="1" vertex="1">
          <mxGeometry x="561.5537058384756" y="-794.7361621621621" width="35.94629416152437" height="37.72637837837837" as="geometry" />
        </mxCell>
        <mxCell id="RznItZ6FsPS7y6rkY32L-12" value="" style="verticalLabelPosition=bottom;html=1;verticalAlign=top;align=center;shape=mxgraph.floorplan.range_2;strokeWidth=1;rotation=90;" parent="1" vertex="1">
          <mxGeometry x="618" y="-680.0000000000001" width="75" height="57.65" as="geometry" />
        </mxCell>
        <mxCell id="RznItZ6FsPS7y6rkY32L-13" value="" style="verticalLabelPosition=bottom;html=1;verticalAlign=top;align=center;shape=mxgraph.floorplan.refrigerator;strokeWidth=1;rotation=-180;" parent="1" vertex="1">
          <mxGeometry x="508" y="-612.7" width="74.5" height="50.62" as="geometry" />
        </mxCell>
        <mxCell id="RznItZ6FsPS7y6rkY32L-17" value="" style="verticalLabelPosition=bottom;html=1;verticalAlign=top;align=center;shape=mxgraph.floorplan.table;strokeWidth=1;rotation=-180;" parent="1" vertex="1">
          <mxGeometry x="586.25" y="-613.14" width="100" height="51.67" as="geometry" />
        </mxCell>
        <mxCell id="RznItZ6FsPS7y6rkY32L-88" value="&lt;i&gt;Living room&lt;/i&gt;" style="text;html=1;strokeColor=none;fillColor=none;align=center;verticalAlign=middle;whiteSpace=wrap;rounded=0;fontSize=12;" parent="1" vertex="1">
          <mxGeometry x="297" y="-775.7346639511202" width="93" height="25.05091649694501" as="geometry" />
        </mxCell>
        <mxCell id="RznItZ6FsPS7y6rkY32L-2" value="" style="verticalLabelPosition=bottom;html=1;verticalAlign=top;align=center;shape=mxgraph.floorplan.room;fillColor=strokeColor;strokeWidth=0;" parent="1" vertex="1">
          <mxGeometry x="105" y="-951.5500000000001" width="590" height="400" as="geometry" />
        </mxCell>
        <mxCell id="7r8yQM-oweqpXDeGi5ox-9" value="" style="group;rotation=-180;" parent="1" vertex="1" connectable="0">
          <mxGeometry x="455" y="-950.5500000000001" width="133" height="59.45999999999998" as="geometry" />
        </mxCell>
        <mxCell id="RznItZ6FsPS7y6rkY32L-38" value="" style="verticalLabelPosition=bottom;html=1;verticalAlign=top;align=center;shape=mxgraph.floorplan.doorDouble;aspect=fixed;strokeWidth=1;rotation=-360;" parent="7r8yQM-oweqpXDeGi5ox-9" vertex="1">
          <mxGeometry x="13" y="8" width="96.17" height="51.09" as="geometry" />
        </mxCell>
        <mxCell id="RznItZ6FsPS7y6rkY32L-39" value="" style="verticalLabelPosition=bottom;html=1;verticalAlign=top;align=center;shape=mxgraph.floorplan.wall;strokeWidth=1;rotation=-180;" parent="7r8yQM-oweqpXDeGi5ox-9" vertex="1">
          <mxGeometry width="120" height="8.35" as="geometry" />
        </mxCell>
        <mxCell id="7r8yQM-oweqpXDeGi5ox-16" value="D0" style="text;html=1;strokeColor=none;fillColor=none;align=center;verticalAlign=middle;whiteSpace=wrap;rounded=0;fontSize=12;" parent="7r8yQM-oweqpXDeGi5ox-9" vertex="1">
          <mxGeometry x="63.17" y="21.02" width="46" height="25.05" as="geometry" />
        </mxCell>
        <mxCell id="7r8yQM-oweqpXDeGi5ox-12" value="" style="group;rotation=-180;" parent="1" vertex="1" connectable="0">
          <mxGeometry x="633" y="-819.5500000000001" width="51.339999999999975" height="131" as="geometry" />
        </mxCell>
        <mxCell id="RznItZ6FsPS7y6rkY32L-15" value="" style="verticalLabelPosition=bottom;html=1;verticalAlign=top;align=center;shape=mxgraph.floorplan.table;strokeWidth=1;rotation=-90;" parent="7r8yQM-oweqpXDeGi5ox-12" vertex="1">
          <mxGeometry x="-40" y="40" width="131" height="51.34" as="geometry" />
        </mxCell>
        <mxCell id="RznItZ6FsPS7y6rkY32L-14" value="" style="verticalLabelPosition=bottom;html=1;verticalAlign=top;align=center;shape=mxgraph.floorplan.sink_double2;strokeWidth=1;rotation=-90;" parent="7r8yQM-oweqpXDeGi5ox-12" vertex="1">
          <mxGeometry x="-17" y="44" width="80" height="33.40122199592668" as="geometry" />
        </mxCell>
        <mxCell id="7r8yQM-oweqpXDeGi5ox-14" value="&lt;i&gt;Kitchen&lt;/i&gt;" style="text;html=1;strokeColor=none;fillColor=none;align=center;verticalAlign=middle;whiteSpace=wrap;rounded=0;fontSize=12;" parent="1" vertex="1">
          <mxGeometry x="588" y="-939.4446639511201" width="93" height="25.05091649694501" as="geometry" />
        </mxCell>
        <mxCell id="7r8yQM-oweqpXDeGi5ox-93" value="" style="verticalLabelPosition=bottom;html=1;verticalAlign=top;align=center;shape=mxgraph.floorplan.wall;strokeWidth=1;rotation=90;" parent="1" vertex="1">
          <mxGeometry x="598.25" y="-733.5500000000001" width="182.45" height="22.45" as="geometry" />
        </mxCell>
        <mxCell id="7r8yQM-oweqpXDeGi5ox-75" value="" style="verticalLabelPosition=bottom;html=1;verticalAlign=top;align=center;shape=mxgraph.floorplan.plant;strokeWidth=1;" parent="1" vertex="1">
          <mxGeometry x="635" y="-867.5500000000001" width="42" height="40.58" as="geometry" />
        </mxCell>
        <mxCell id="7r8yQM-oweqpXDeGi5ox-153" value="&lt;pre style=&quot;font-size: 10px;&quot;&gt;&lt;b&gt;Kitchen&lt;br/&gt;Light&lt;br/&gt;Level&lt;/b&gt;&lt;/pre&gt;" style="text;html=1;strokeColor=none;fillColor=none;align=center;verticalAlign=middle;whiteSpace=wrap;rounded=0;" parent="1" vertex="1">
          <mxGeometry x="574.5000000000001" y="-674.73" width="27" height="26.6" as="geometry" />
        </mxCell>
        <mxCell id="7r8yQM-oweqpXDeGi5ox-167" value="" style="group" parent="1" vertex="1" connectable="0">
          <mxGeometry x="532.19" y="-676.27" width="31.680000000000007" height="31.680000000000007" as="geometry" />
        </mxCell>
        <mxCell id="7r8yQM-oweqpXDeGi5ox-154" value="" style="ellipse;whiteSpace=wrap;html=1;aspect=fixed;fillColor=#d5e8d4;strokeColor=#82b366;" parent="7r8yQM-oweqpXDeGi5ox-167" vertex="1">
          <mxGeometry width="31.68" height="31.68" as="geometry" />
        </mxCell>
        <mxCell id="7r8yQM-oweqpXDeGi5ox-155" value="" style="shape=mxgraph.signs.tech.rss;html=1;pointerEvents=1;fillColor=#60a917;strokeColor=#2D7600;verticalLabelPosition=bottom;verticalAlign=top;align=center;fontColor=#ffffff;" parent="7r8yQM-oweqpXDeGi5ox-167" vertex="1">
          <mxGeometry x="14.180000000000007" y="2.2017096220387486" width="14.5" height="14.97" as="geometry" />
        </mxCell>
        <mxCell id="7r8yQM-oweqpXDeGi5ox-156" value="" style="shape=mxgraph.signs.tech.rss;html=1;pointerEvents=1;fillColor=#60a917;strokeColor=#2D7600;verticalLabelPosition=bottom;verticalAlign=top;align=center;flipV=1;flipH=1;fontColor=#ffffff;" parent="7r8yQM-oweqpXDeGi5ox-167" vertex="1">
          <mxGeometry x="3.180000000000007" y="13.201709622038734" width="14.5" height="14.97" as="geometry" />
        </mxCell>
        <mxCell id="7r8yQM-oweqpXDeGi5ox-87" value="" style="verticalLabelPosition=bottom;html=1;verticalAlign=top;align=center;shape=mxgraph.floorplan.chair;shadow=0;direction=south;strokeWidth=1;rotation=-90;container=0;" parent="1" vertex="1">
          <mxGeometry x="509.55455346850204" y="-849.0021081081081" width="35.94629416152437" height="37.72637837837837" as="geometry" />
        </mxCell>
        <mxCell id="7r8yQM-oweqpXDeGi5ox-88" value="" style="verticalLabelPosition=bottom;html=1;verticalAlign=top;align=center;shape=mxgraph.floorplan.chair;shadow=0;direction=south;strokeWidth=1;rotation=-90;container=0;flipH=1;" parent="1" vertex="1">
          <mxGeometry x="509.55455346850204" y="-743.1642702702703" width="35.94629416152437" height="37.72637837837837" as="geometry" />
        </mxCell>
        <mxCell id="RznItZ6FsPS7y6rkY32L-21" value="" style="verticalLabelPosition=bottom;html=1;verticalAlign=top;align=center;shape=mxgraph.floorplan.chair;shadow=0;direction=south;strokeWidth=1;rotation=-180;container=0;" parent="1" vertex="1">
          <mxGeometry x="458" y="-794.7361621621621" width="35.94629416152437" height="37.72637837837837" as="geometry" />
        </mxCell>
        <mxCell id="RznItZ6FsPS7y6rkY32L-24" value="" style="shape=ellipse;shadow=0;strokeWidth=1;rotation=-180;container=0;" parent="1" vertex="1">
          <mxGeometry x="478.85831016477925" y="-829.6049189189189" width="97.91581338577336" height="99.23740540540538" as="geometry" />
        </mxCell>
        <mxCell id="0M6jd2dRWZS2fC3PjOVr-3" value="" style="verticalLabelPosition=bottom;html=1;verticalAlign=top;align=center;shape=mxgraph.floorplan.wall;fillColor=strokeColor;" parent="1" vertex="1">
          <mxGeometry x="110" y="-802" width="50" height="10" as="geometry" />
        </mxCell>
        <mxCell id="0M6jd2dRWZS2fC3PjOVr-4" value="" style="verticalLabelPosition=bottom;html=1;verticalAlign=top;align=center;shape=mxgraph.floorplan.wall;fillColor=strokeColor;rotation=90;" parent="1" vertex="1">
          <mxGeometry x="281.25" y="-833.53" width="227.5" height="10" as="geometry" />
        </mxCell>
        <mxCell id="0M6jd2dRWZS2fC3PjOVr-5" value="" style="verticalLabelPosition=bottom;html=1;verticalAlign=top;align=center;shape=mxgraph.floorplan.doorRight;aspect=fixed;strokeWidth=1;rotation=0;flipH=1;flipV=1;" parent="1" vertex="1">
          <mxGeometry x="159" y="-859.9999999999999" width="62.25" height="66.15" as="geometry" />
        </mxCell>
        <mxCell id="0M6jd2dRWZS2fC3PjOVr-6" value="D1" style="text;html=1;strokeColor=none;fillColor=none;align=center;verticalAlign=middle;whiteSpace=wrap;rounded=0;fontSize=12;rotation=0;" parent="1" vertex="1">
          <mxGeometry x="159" y="-842" width="60" height="25.05" as="geometry" />
        </mxCell>
        <mxCell id="0M6jd2dRWZS2fC3PjOVr-8" value="" style="verticalLabelPosition=bottom;html=1;verticalAlign=top;align=center;shape=mxgraph.floorplan.wall;fillColor=strokeColor;" parent="1" vertex="1">
          <mxGeometry x="221.25" y="-801.85" width="168.75" height="10" as="geometry" />
        </mxCell>
        <mxCell id="DHhN4xZnDI9eWVdaT0hH-5" value="" style="verticalLabelPosition=bottom;html=1;verticalAlign=top;align=center;shape=mxgraph.floorplan.couch;strokeWidth=1;rotation=0;" parent="1" vertex="1">
          <mxGeometry x="161" y="-725.58" width="148.58999999999997" height="41.751704300727816" as="geometry" />
        </mxCell>
        <mxCell id="DHhN4xZnDI9eWVdaT0hH-6" value="" style="group;rotation=-90;" parent="1" vertex="1" connectable="0">
          <mxGeometry x="220.436" y="-655.5797035699505" width="90.14" height="153.00064791139394" as="geometry" />
        </mxCell>
        <mxCell id="DHhN4xZnDI9eWVdaT0hH-7" value="" style="verticalLabelPosition=bottom;html=1;verticalAlign=top;align=center;shape=mxgraph.floorplan.table;strokeWidth=1;rotation=-180;container=0;" parent="DHhN4xZnDI9eWVdaT0hH-6" vertex="1">
          <mxGeometry x="-61.42" y="53.23" width="151.56" height="38" as="geometry" />
        </mxCell>
        <mxCell id="DHhN4xZnDI9eWVdaT0hH-8" value="" style="verticalLabelPosition=bottom;html=1;verticalAlign=top;align=center;shape=mxgraph.floorplan.flat_tv;strokeWidth=1;rotation=-180;container=0;" parent="DHhN4xZnDI9eWVdaT0hH-6" vertex="1">
          <mxGeometry x="-41.605199999999996" y="76.00032183833947" width="108.966" height="8.350340860145565" as="geometry" />
        </mxCell>
        <mxCell id="7r8yQM-oweqpXDeGi5ox-100" value="" style="group" parent="1" vertex="1" connectable="0">
          <mxGeometry x="224" y="-654.58" width="44" height="38.79999999999998" as="geometry" />
        </mxCell>
        <mxCell id="7r8yQM-oweqpXDeGi5ox-96" value="" style="html=1;verticalLabelPosition=bottom;align=center;labelBackgroundColor=#ffffff;verticalAlign=top;strokeWidth=2;strokeColor=#0080F0;shadow=0;dashed=0;shape=mxgraph.ios7.icons.lightbulb;" parent="7r8yQM-oweqpXDeGi5ox-100" vertex="1">
          <mxGeometry width="22.8" height="29.7" as="geometry" />
        </mxCell>
        <mxCell id="RznItZ6FsPS7y6rkY32L-68" value="&lt;pre style=&quot;font-size: 10px;&quot;&gt;&lt;b&gt;SB1&lt;/b&gt;&lt;/pre&gt;" style="text;html=1;strokeColor=none;fillColor=none;align=center;verticalAlign=middle;whiteSpace=wrap;rounded=0;" parent="7r8yQM-oweqpXDeGi5ox-100" vertex="1">
          <mxGeometry x="17" y="12.199999999999989" width="27" height="26.6" as="geometry" />
        </mxCell>
        <mxCell id="0M6jd2dRWZS2fC3PjOVr-21" value="" style="group;rotation=-180;" parent="1" vertex="1" connectable="0">
          <mxGeometry x="267" y="-939" width="120" height="70" as="geometry" />
        </mxCell>
        <mxCell id="0M6jd2dRWZS2fC3PjOVr-17" value="" style="verticalLabelPosition=bottom;html=1;verticalAlign=top;align=center;shape=mxgraph.floorplan.office_chair;shadow=0;rotation=-180;" parent="0M6jd2dRWZS2fC3PjOVr-21" vertex="1">
          <mxGeometry x="53" y="30" width="40" height="43" as="geometry" />
        </mxCell>
        <mxCell id="0M6jd2dRWZS2fC3PjOVr-18" value="" style="shape=rect;shadow=0;html=1;rotation=-180;" parent="0M6jd2dRWZS2fC3PjOVr-21" vertex="1">
          <mxGeometry x="-10" width="130" height="50" as="geometry" />
        </mxCell>
        <mxCell id="0M6jd2dRWZS2fC3PjOVr-19" value="" style="verticalLabelPosition=bottom;html=1;verticalAlign=top;align=center;shape=mxgraph.floorplan.workstation;shadow=0;flipV=1;rotation=-180;" parent="0M6jd2dRWZS2fC3PjOVr-21" vertex="1">
          <mxGeometry x="48" y="3" width="50" height="40" as="geometry" />
        </mxCell>
        <mxCell id="0M6jd2dRWZS2fC3PjOVr-24" value="" style="verticalLabelPosition=bottom;html=1;verticalAlign=top;align=center;shape=mxgraph.floorplan.doorRight;aspect=fixed;strokeWidth=1;rotation=-90;flipH=1;flipV=1;" parent="1" vertex="1">
          <mxGeometry x="333" y="-715.6199999999999" width="62.25" height="66.15" as="geometry" />
        </mxCell>
        <mxCell id="0M6jd2dRWZS2fC3PjOVr-25" value="" style="verticalLabelPosition=bottom;html=1;verticalAlign=top;align=center;shape=mxgraph.floorplan.wall;fillColor=strokeColor;rotation=90;" parent="1" vertex="1">
          <mxGeometry x="345.32" y="-607.31" width="99.37" height="10" as="geometry" />
        </mxCell>
        <mxCell id="0M6jd2dRWZS2fC3PjOVr-27" value="D2" style="text;html=1;strokeColor=none;fillColor=none;align=center;verticalAlign=middle;whiteSpace=wrap;rounded=0;fontSize=12;rotation=0;" parent="1" vertex="1">
          <mxGeometry x="335.25" y="-688.55" width="60" height="25.05" as="geometry" />
        </mxCell>
        <mxCell id="7r8yQM-oweqpXDeGi5ox-103" value="&lt;pre style=&quot;font-size: 10px;&quot;&gt;&lt;b&gt;Main Light&lt;/b&gt;&lt;/pre&gt;" style="text;html=1;strokeColor=none;fillColor=none;align=center;verticalAlign=middle;whiteSpace=wrap;rounded=0;" parent="1" vertex="1">
          <mxGeometry x="500" y="-781.72" width="63" height="26.6" as="geometry" />
        </mxCell>
        <mxCell id="7r8yQM-oweqpXDeGi5ox-102" value="" style="html=1;verticalLabelPosition=bottom;align=center;labelBackgroundColor=#ffffff;verticalAlign=top;strokeWidth=2;strokeColor=#0080F0;shadow=0;dashed=0;shape=mxgraph.ios7.icons.lightbulb;" parent="1" vertex="1">
          <mxGeometry x="516.75" y="-805.4200000000001" width="22.8" height="29.7" as="geometry" />
        </mxCell>
        <mxCell id="0M6jd2dRWZS2fC3PjOVr-30" value="&lt;i&gt;Studio&lt;/i&gt;" style="text;html=1;strokeColor=none;fillColor=none;align=center;verticalAlign=middle;whiteSpace=wrap;rounded=0;fontSize=12;" parent="1" vertex="1">
          <mxGeometry x="329" y="-827.32" width="57" height="25.05" as="geometry" />
        </mxCell>
        <mxCell id="0M6jd2dRWZS2fC3PjOVr-32" value="" style="html=1;verticalLabelPosition=bottom;align=center;labelBackgroundColor=#ffffff;verticalAlign=top;strokeWidth=2;strokeColor=#0080F0;shadow=0;dashed=0;shape=mxgraph.ios7.icons.lightbulb;" parent="1" vertex="1">
          <mxGeometry x="239.6" y="-862.11" width="22.8" height="29.7" as="geometry" />
        </mxCell>
        <mxCell id="7r8yQM-oweqpXDeGi5ox-122" value="" style="group;rotation=-180;direction=north;" parent="1" vertex="1" connectable="0">
          <mxGeometry x="417.15" y="-637.5482903779613" width="68.71000000000004" height="72.70829037796125" as="geometry" />
        </mxCell>
        <mxCell id="7r8yQM-oweqpXDeGi5ox-123" value="" style="endArrow=none;html=1;rounded=0;" parent="7r8yQM-oweqpXDeGi5ox-122" edge="1">
          <mxGeometry width="50" height="50" relative="1" as="geometry">
            <mxPoint x="68" y="49" as="sourcePoint" />
            <mxPoint x="15" y="54" as="targetPoint" />
          </mxGeometry>
        </mxCell>
        <mxCell id="7r8yQM-oweqpXDeGi5ox-124" value="" style="endArrow=none;html=1;rounded=0;" parent="7r8yQM-oweqpXDeGi5ox-122" edge="1">
          <mxGeometry width="50" height="50" relative="1" as="geometry">
            <mxPoint x="26" y="3" as="sourcePoint" />
            <mxPoint x="16" y="45" as="targetPoint" />
          </mxGeometry>
        </mxCell>
        <mxCell id="7r8yQM-oweqpXDeGi5ox-125" value="" style="image;aspect=fixed;perimeter=ellipsePerimeter;html=1;align=center;shadow=0;dashed=0;fontColor=#4277BB;labelBackgroundColor=default;fontSize=12;spacingTop=3;image=img/lib/ibm/users/sensor.svg;rotation=-522;" parent="7r8yQM-oweqpXDeGi5ox-122" vertex="1">
          <mxGeometry x="-1" y="35" width="33" height="33" as="geometry" />
        </mxCell>
        <mxCell id="7r8yQM-oweqpXDeGi5ox-126" value="&lt;pre style=&quot;font-size: 10px;&quot;&gt;&lt;b&gt;Kitchen&lt;br/&gt;Occupancy&lt;/b&gt;&lt;/pre&gt;" style="text;html=1;strokeColor=none;fillColor=none;align=center;verticalAlign=middle;whiteSpace=wrap;rounded=0;" parent="7r8yQM-oweqpXDeGi5ox-122" vertex="1">
          <mxGeometry x="41.710000000000036" y="8.398290377961242" width="27" height="26.6" as="geometry" />
        </mxCell>
        <mxCell id="7r8yQM-oweqpXDeGi5ox-120" value="" style="group;flipV=0;flipH=0;" parent="1" vertex="1" connectable="0">
          <mxGeometry x="316.0044522101577" y="-641.0464253248268" width="98.85554778984232" height="76.20456027169237" as="geometry" />
        </mxCell>
        <mxCell id="7r8yQM-oweqpXDeGi5ox-118" value="" style="group;rotation=357;direction=north;flipH=0;flipV=1;" parent="7r8yQM-oweqpXDeGi5ox-120" vertex="1" connectable="0">
          <mxGeometry x="1.8555477898423192" y="1.748134946865548" width="68.70829037796125" height="72.70829037796125" as="geometry" />
        </mxCell>
        <mxCell id="7r8yQM-oweqpXDeGi5ox-113" value="" style="endArrow=none;html=1;rounded=0;" parent="7r8yQM-oweqpXDeGi5ox-118" edge="1">
          <mxGeometry width="50" height="50" relative="1" as="geometry">
            <mxPoint y="48" as="sourcePoint" />
            <mxPoint x="53" y="54" as="targetPoint" />
          </mxGeometry>
        </mxCell>
        <mxCell id="7r8yQM-oweqpXDeGi5ox-114" value="" style="endArrow=none;html=1;rounded=0;" parent="7r8yQM-oweqpXDeGi5ox-118" edge="1">
          <mxGeometry width="50" height="50" relative="1" as="geometry">
            <mxPoint x="45" y="4" as="sourcePoint" />
            <mxPoint x="51" y="45" as="targetPoint" />
          </mxGeometry>
        </mxCell>
        <mxCell id="7r8yQM-oweqpXDeGi5ox-110" value="" style="image;aspect=fixed;perimeter=ellipsePerimeter;html=1;align=center;shadow=0;dashed=0;fontColor=#4277BB;labelBackgroundColor=default;fontSize=12;spacingTop=3;image=img/lib/ibm/users/sensor.svg;rotation=15;" parent="7r8yQM-oweqpXDeGi5ox-118" vertex="1">
          <mxGeometry x="36" y="36" width="33" height="33" as="geometry" />
        </mxCell>
        <mxCell id="0M6jd2dRWZS2fC3PjOVr-40" value="" style="group;flipV=0;flipH=0;" parent="1" vertex="1" connectable="0">
          <mxGeometry x="326.0044522101577" y="-631.0464253248268" width="98.85554778984232" height="76.20456027169237" as="geometry" />
        </mxCell>
        <mxCell id="0M6jd2dRWZS2fC3PjOVr-45" value="&lt;pre style=&quot;font-size: 10px;&quot;&gt;&lt;b style=&quot;background-color: initial;&quot;&gt;O&lt;/b&gt;&lt;b style=&quot;background-color: initial; font-family: Helvetica; white-space: normal;&quot;&gt;S1&lt;/b&gt;&lt;/pre&gt;" style="text;html=1;strokeColor=none;fillColor=none;align=center;verticalAlign=middle;whiteSpace=wrap;rounded=0;" parent="0M6jd2dRWZS2fC3PjOVr-40" vertex="1">
          <mxGeometry x="7.855547789842319" y="1.7764253248267892" width="27" height="26.6" as="geometry" />
        </mxCell>
        <mxCell id="0M6jd2dRWZS2fC3PjOVr-41" value="" style="group;rotation=-176;direction=north;flipH=0;flipV=1;" parent="1" vertex="1" connectable="0">
          <mxGeometry x="120" y="-938.9982903779612" width="68.70829037796125" height="72.70829037796125" as="geometry" />
        </mxCell>
        <mxCell id="0M6jd2dRWZS2fC3PjOVr-42" value="" style="endArrow=none;html=1;rounded=0;" parent="0M6jd2dRWZS2fC3PjOVr-41" edge="1">
          <mxGeometry width="50" height="50" relative="1" as="geometry">
            <mxPoint x="70" y="29" as="sourcePoint" />
            <mxPoint x="18" y="17" as="targetPoint" />
          </mxGeometry>
        </mxCell>
        <mxCell id="0M6jd2dRWZS2fC3PjOVr-43" value="" style="endArrow=none;html=1;rounded=0;" parent="0M6jd2dRWZS2fC3PjOVr-41" edge="1">
          <mxGeometry width="50" height="50" relative="1" as="geometry">
            <mxPoint x="20" y="67" as="sourcePoint" />
            <mxPoint x="19" y="26" as="targetPoint" />
          </mxGeometry>
        </mxCell>
        <mxCell id="0M6jd2dRWZS2fC3PjOVr-44" value="" style="image;aspect=fixed;perimeter=ellipsePerimeter;html=1;align=center;shadow=0;dashed=0;fontColor=#4277BB;labelBackgroundColor=default;fontSize=12;spacingTop=3;image=img/lib/ibm/users/sensor.svg;rotation=-518;" parent="0M6jd2dRWZS2fC3PjOVr-41" vertex="1">
          <mxGeometry x="2" y="1" width="33" height="33" as="geometry" />
        </mxCell>
        <mxCell id="0M6jd2dRWZS2fC3PjOVr-51" value="" style="ellipse;whiteSpace=wrap;html=1;aspect=fixed;fillColor=#d5e8d4;strokeColor=#82b366;" parent="1" vertex="1">
          <mxGeometry x="287.00000000000006" y="-860" width="31.68" height="31.68" as="geometry" />
        </mxCell>
        <mxCell id="0M6jd2dRWZS2fC3PjOVr-53" value="" style="shape=mxgraph.signs.tech.rss;html=1;pointerEvents=1;fillColor=#60a917;strokeColor=#2D7600;verticalLabelPosition=bottom;verticalAlign=top;align=center;flipV=1;flipH=1;fontColor=#ffffff;" parent="1" vertex="1">
          <mxGeometry x="290.18000000000006" y="-846.7982903779612" width="14.5" height="14.97" as="geometry" />
        </mxCell>
        <mxCell id="0M6jd2dRWZS2fC3PjOVr-52" value="" style="shape=mxgraph.signs.tech.rss;html=1;pointerEvents=1;fillColor=#60a917;strokeColor=#2D7600;verticalLabelPosition=bottom;verticalAlign=top;align=center;fontColor=#ffffff;" parent="1" vertex="1">
          <mxGeometry x="301.18000000000006" y="-857.7982903779612" width="14.5" height="14.97" as="geometry" />
        </mxCell>
        <mxCell id="0M6jd2dRWZS2fC3PjOVr-54" value="" style="verticalLabelPosition=bottom;html=1;verticalAlign=top;align=center;shape=mxgraph.floorplan.wall;strokeWidth=1;rotation=0;" parent="1" vertex="1">
          <mxGeometry x="157.07000000000002" y="-957.45" width="182.45" height="22.45" as="geometry" />
        </mxCell>
        <mxCell id="0M6jd2dRWZS2fC3PjOVr-55" value="&lt;span style=&quot;background-color: rgb(255, 255, 255);&quot;&gt;Win1&lt;/span&gt;" style="text;html=1;strokeColor=none;fillColor=none;align=center;verticalAlign=middle;whiteSpace=wrap;rounded=0;fontSize=12;" parent="1" vertex="1">
          <mxGeometry x="278.74" y="-963.6" width="47.26" height="25.05" as="geometry" />
        </mxCell>
        <mxCell id="0M6jd2dRWZS2fC3PjOVr-56" value="" style="image;aspect=fixed;html=1;points=[];align=center;fontSize=12;image=img/lib/azure2/general/Gear.svg;" parent="1" vertex="1">
          <mxGeometry x="193.87000000000006" y="-963.5899999999999" width="34.73" height="34.73" as="geometry" />
        </mxCell>
        <mxCell id="7r8yQM-oweqpXDeGi5ox-21" value="&lt;span style=&quot;background-color: rgb(255, 255, 255);&quot;&gt;Win2&lt;/span&gt;" style="text;html=1;strokeColor=none;fillColor=none;align=center;verticalAlign=middle;whiteSpace=wrap;rounded=0;fontSize=12;" parent="1" vertex="1">
          <mxGeometry x="642.98" y="-726.8246639511202" width="93" height="25.05091649694501" as="geometry" />
        </mxCell>
        <mxCell id="vrruzYlt1HzjlDkKj_sJ-4" value="" style="group" parent="1" vertex="1" connectable="0">
          <mxGeometry x="68" y="-932.55" width="35" height="362" as="geometry" />
        </mxCell>
        <mxCell id="vrruzYlt1HzjlDkKj_sJ-5" value="wall1" style="text;html=1;strokeColor=none;fillColor=none;align=center;verticalAlign=middle;whiteSpace=wrap;rounded=0;fontSize=12;" parent="vrruzYlt1HzjlDkKj_sJ-4" vertex="1">
          <mxGeometry y="176.13" width="35" height="25.05" as="geometry" />
        </mxCell>
        <mxCell id="vrruzYlt1HzjlDkKj_sJ-6" value="" style="endArrow=classic;html=1;rounded=0;" parent="vrruzYlt1HzjlDkKj_sJ-4" edge="1">
          <mxGeometry width="50" height="50" relative="1" as="geometry">
            <mxPoint x="18" y="176.69999999999982" as="sourcePoint" />
            <mxPoint x="19" as="targetPoint" />
          </mxGeometry>
        </mxCell>
        <mxCell id="vrruzYlt1HzjlDkKj_sJ-7" value="" style="endArrow=classic;html=1;rounded=0;" parent="vrruzYlt1HzjlDkKj_sJ-4" edge="1">
          <mxGeometry width="50" height="50" relative="1" as="geometry">
            <mxPoint x="18" y="199.9999999999999" as="sourcePoint" />
            <mxPoint x="18" y="362" as="targetPoint" />
          </mxGeometry>
        </mxCell>
        <mxCell id="vrruzYlt1HzjlDkKj_sJ-8" value="" style="group;rotation=90;" parent="1" vertex="1" connectable="0">
          <mxGeometry x="384.98" y="-1150" width="35" height="362" as="geometry" />
        </mxCell>
        <mxCell id="vrruzYlt1HzjlDkKj_sJ-9" value="wall2" style="text;html=1;strokeColor=none;fillColor=none;align=center;verticalAlign=middle;whiteSpace=wrap;rounded=0;fontSize=12;rotation=0;" parent="vrruzYlt1HzjlDkKj_sJ-8" vertex="1">
          <mxGeometry x="-3" y="168" width="35" height="25.05" as="geometry" />
        </mxCell>
        <mxCell id="vrruzYlt1HzjlDkKj_sJ-10" value="" style="endArrow=classic;html=1;rounded=0;" parent="vrruzYlt1HzjlDkKj_sJ-8" edge="1">
          <mxGeometry width="50" height="50" relative="1" as="geometry">
            <mxPoint x="35.01999999999998" y="185" as="sourcePoint" />
            <mxPoint x="295.02" y="185" as="targetPoint" />
          </mxGeometry>
        </mxCell>
        <mxCell id="vrruzYlt1HzjlDkKj_sJ-11" value="" style="endArrow=classic;html=1;rounded=0;" parent="vrruzYlt1HzjlDkKj_sJ-8" edge="1">
          <mxGeometry width="50" height="50" relative="1" as="geometry">
            <mxPoint x="-4.980000000000018" y="185" as="sourcePoint" />
            <mxPoint x="-264.98" y="185" as="targetPoint" />
          </mxGeometry>
        </mxCell>
        <mxCell id="vrruzYlt1HzjlDkKj_sJ-12" value="" style="endArrow=classic;html=1;rounded=0;" parent="1" edge="1">
          <mxGeometry width="50" height="50" relative="1" as="geometry">
            <mxPoint x="712" y="-798" as="sourcePoint" />
            <mxPoint x="713" y="-932.75" as="targetPoint" />
          </mxGeometry>
        </mxCell>
        <mxCell id="vrruzYlt1HzjlDkKj_sJ-13" value="" style="endArrow=classic;html=1;rounded=0;" parent="1" edge="1">
          <mxGeometry width="50" height="50" relative="1" as="geometry">
            <mxPoint x="712" y="-773" as="sourcePoint" />
            <mxPoint x="712" y="-570.75" as="targetPoint" />
          </mxGeometry>
        </mxCell>
        <mxCell id="vrruzYlt1HzjlDkKj_sJ-14" value="wall3" style="text;html=1;strokeColor=none;fillColor=none;align=center;verticalAlign=middle;whiteSpace=wrap;rounded=0;fontSize=12;" parent="1" vertex="1">
          <mxGeometry x="695" y="-798.62" width="35" height="25.05" as="geometry" />
        </mxCell>
        <mxCell id="vrruzYlt1HzjlDkKj_sJ-15" value="" style="group;rotation=90;" parent="1" vertex="1" connectable="0">
          <mxGeometry x="382.98" y="-719" width="35" height="362" as="geometry" />
        </mxCell>
        <mxCell id="vrruzYlt1HzjlDkKj_sJ-16" value="wall4" style="text;html=1;strokeColor=none;fillColor=none;align=center;verticalAlign=middle;whiteSpace=wrap;rounded=0;fontSize=12;rotation=0;" parent="vrruzYlt1HzjlDkKj_sJ-15" vertex="1">
          <mxGeometry x="-3" y="168" width="35" height="25.05" as="geometry" />
        </mxCell>
        <mxCell id="vrruzYlt1HzjlDkKj_sJ-17" value="" style="endArrow=classic;html=1;rounded=0;" parent="vrruzYlt1HzjlDkKj_sJ-15" edge="1">
          <mxGeometry width="50" height="50" relative="1" as="geometry">
            <mxPoint x="35.01999999999998" y="185" as="sourcePoint" />
            <mxPoint x="295.02" y="185" as="targetPoint" />
          </mxGeometry>
        </mxCell>
        <mxCell id="vrruzYlt1HzjlDkKj_sJ-18" value="" style="endArrow=classic;html=1;rounded=0;" parent="vrruzYlt1HzjlDkKj_sJ-15" edge="1">
          <mxGeometry width="50" height="50" relative="1" as="geometry">
            <mxPoint x="-4.980000000000018" y="185" as="sourcePoint" />
            <mxPoint x="-264.98" y="185" as="targetPoint" />
          </mxGeometry>
        </mxCell>
        <mxCell id="vrruzYlt1HzjlDkKj_sJ-19" value="" style="group" parent="1" vertex="1" connectable="0">
          <mxGeometry x="394.25" y="-935.05" width="35" height="362" as="geometry" />
        </mxCell>
        <mxCell id="vrruzYlt1HzjlDkKj_sJ-20" value="wall5" style="text;html=1;strokeColor=none;fillColor=none;align=center;verticalAlign=middle;whiteSpace=wrap;rounded=0;fontSize=12;" parent="vrruzYlt1HzjlDkKj_sJ-19" vertex="1">
          <mxGeometry x="6" y="176.13" width="35" height="25.05" as="geometry" />
        </mxCell>
        <mxCell id="vrruzYlt1HzjlDkKj_sJ-21" value="" style="endArrow=classic;html=1;rounded=0;" parent="vrruzYlt1HzjlDkKj_sJ-19" edge="1">
          <mxGeometry width="50" height="50" relative="1" as="geometry">
            <mxPoint x="18" y="176.69999999999982" as="sourcePoint" />
            <mxPoint x="19" as="targetPoint" />
          </mxGeometry>
        </mxCell>
        <mxCell id="vrruzYlt1HzjlDkKj_sJ-22" value="" style="endArrow=classic;html=1;rounded=0;" parent="vrruzYlt1HzjlDkKj_sJ-19" edge="1">
          <mxGeometry width="50" height="50" relative="1" as="geometry">
            <mxPoint x="18" y="199.9999999999999" as="sourcePoint" />
            <mxPoint x="17.75" y="319.04999999999995" as="targetPoint" />
          </mxGeometry>
        </mxCell>
        <mxCell id="vrruzYlt1HzjlDkKj_sJ-23" value="" style="group;rotation=90;" parent="1" vertex="1" connectable="0">
          <mxGeometry x="233.50000000000003" y="-961.5699999999999" width="35" height="362" as="geometry" />
        </mxCell>
        <mxCell id="vrruzYlt1HzjlDkKj_sJ-24" value="wall6" style="text;html=1;strokeColor=none;fillColor=none;align=center;verticalAlign=middle;whiteSpace=wrap;rounded=0;fontSize=12;rotation=0;" parent="vrruzYlt1HzjlDkKj_sJ-23" vertex="1">
          <mxGeometry x="-3" y="168" width="35" height="25.05" as="geometry" />
        </mxCell>
        <mxCell id="vrruzYlt1HzjlDkKj_sJ-25" value="" style="endArrow=classic;html=1;rounded=0;" parent="vrruzYlt1HzjlDkKj_sJ-23" edge="1">
          <mxGeometry width="50" height="50" relative="1" as="geometry">
            <mxPoint x="35.01999999999998" y="180" as="sourcePoint" />
            <mxPoint x="146.49999999999997" y="179.56999999999994" as="targetPoint" />
          </mxGeometry>
        </mxCell>
        <mxCell id="vrruzYlt1HzjlDkKj_sJ-26" value="" style="endArrow=classic;html=1;rounded=0;" parent="vrruzYlt1HzjlDkKj_sJ-23" edge="1">
          <mxGeometry width="50" height="50" relative="1" as="geometry">
            <mxPoint x="-4.980000000000018" y="180" as="sourcePoint" />
            <mxPoint x="-108.50000000000003" y="179.56999999999994" as="targetPoint" />
          </mxGeometry>
        </mxCell>
        <mxCell id="uVuIE0xZOwHS_JLGDCft-1" value="" style="shadow=0;dashed=0;html=1;strokeColor=none;fillColor=#B266FF;labelPosition=center;verticalLabelPosition=bottom;verticalAlign=top;align=center;outlineConnect=0;shape=mxgraph.veeam.2d.alarm;" vertex="1" parent="vrruzYlt1HzjlDkKj_sJ-23">
          <mxGeometry x="-66.50000000000003" y="141.56999999999994" width="45" height="34.37" as="geometry" />
        </mxCell>
      </root>
    </mxGraphModel>
  </diagram>
</mxfile>
